<?xml version="1.0" encoding="utf-8"?>
<!-- Svg Vector Icons : http://www.onlinewebfonts.com/icon -->
<!DOCTYPE svg PUBLIC "-//W3C//DTD SVG 1.1//EN" "http://www.w3.org/Graphics/SVG/1.1/DTD/svg11.dtd">
<svg version="1.1" xmlns="http://www.w3.org/2000/svg" xmlns:xlink="http://www.w3.org/1999/xlink" x="0px" y="0px" viewBox="0 0 1000 1000" enable-background="new 0 0 1000 1000" xml:space="preserve">
<metadata> Svg Vector Icons : http://www.onlinewebfonts.com/icon </metadata>
<g><path d="M644.5,586.3C740.6,534.6,806,433,806,316.2C806,147.2,668.9,10,500,10c-169,0-306,137.2-306,306.2c0,116.8,65.3,218.4,161.4,270C189.7,645.6,71.3,804,71.3,990h61.2c0-202.7,164.9-367.4,367.6-367.4c202.5,0,367.4,164.7,367.4,367.4h61.3C928.7,804,810.2,645.6,644.5,586.3z M255.2,316.2c0-135,109.8-244.9,244.8-244.9c134.9,0,244.6,109.9,244.6,244.9c0,135.1-109.8,245-244.6,245C365,561.3,255.2,451.3,255.2,316.2L255.2,316.2z"/></g>
</svg>